<svg xmlns="http://www.w3.org/2000/svg" width="75.935" height="71.726" viewBox="0 0 75.935 71.726"><g transform="translate(-1118.801 -1726.12)"><path d="M1173.877,1726.12a20.86,20.86,0,1,0,20.859,20.861A20.861,20.861,0,0,0,1173.877,1726.12Zm1.335,29.128a.165.165,0,0,0-.146.185v1.75a.881.881,0,0,1-.891.868h-.793a.88.88,0,0,1-.89-.868v-1.664c0-.122-.135-.17-.162-.173a14.533,14.533,0,0,1-3.456-.961.718.718,0,0,1-.365-.9l.409-1.109a.833.833,0,0,1,.786-.546.875.875,0,0,1,.376.085,9.651,9.651,0,0,0,3.257.881c1.612,0,2.736-.864,2.736-2.1,0-1.138-.794-1.913-2.741-2.677-2.435-.925-4.691-2.159-4.691-4.888a4.61,4.61,0,0,1,3.849-4.488c.051-.013.19-.068.19-.2l0-1.671a.88.88,0,0,1,.889-.867h.769a.88.88,0,0,1,.89.867l.006,1.59a.146.146,0,0,0,.135.149,16.7,16.7,0,0,1,2.857.746.678.678,0,0,1,.366.871l-.429,1.1a.821.821,0,0,1-.769.526.871.871,0,0,1-.406-.1,6.644,6.644,0,0,0-2.767-.62c-1.763,0-2.389.964-2.389,1.79,0,1.032.681,1.6,3.039,2.549,3.1,1.224,4.421,2.763,4.421,5.145A4.826,4.826,0,0,1,1175.212,1755.248Z" fill="#db6d16"/><path d="M1190.5,1777.949a53.087,53.087,0,0,1-16.621,5.667c-5.413.849-15.6-1.2-15.6-3.617,0-.916,8.932,2.258,14.335.817,4.143-1.106,3.555-4.981,1.3-5.493s-15.366-5.316-20.972-5.482c-2.642-.079-9.161.918-12.316,1.433-1.082.176-1.759.156-1.826,1.19-.315,4.807-.934,14.638-1.271,19.773-.007.107.144,1.567,1.348.541,1.318-1.124,3.166-2.37,4.875-1.983,2.683.609,25.887,4.861,29.088,4.116,4.578-1.064,17.54-8.745,20.025-11.132,3.853-3.7.858-7.61-2.368-5.83Zm0,0" fill="#2a65a9"/><path d="M1138.745,1770.415l-14.65-.722a2.64,2.64,0,0,0-2.569,1.893l-2.662,24.186a1.6,1.6,0,0,0,1.546,2.074h16.236a2.166,2.166,0,0,0,2.216-1.975l1.782-23.3a2,2,0,0,0-1.9-2.154Zm-8.625,24.225a4.051,4.051,0,1,1,4.051-4.05,4.05,4.05,0,0,1-4.051,4.05Zm0,0" fill="#2a65a9"/></g></svg>