<svg xmlns="http://www.w3.org/2000/svg" width="139.862" height="77.129" viewBox="0 0 139.862 77.129"><g transform="translate(-1088.245 -1356.815)"><circle cx="29.516" cy="29.516" r="29.516" transform="translate(1088.245 1417.324) rotate(-76.717)" fill="#2a65a9"/><path d="M1118.861,1395.714v18.077a.471.471,0,0,0,.471.471h6.713a.471.471,0,0,0,.471-.471v-18.372h4.867a.47.47,0,0,0,.469-.431l.468-5.536a.47.47,0,0,0-.469-.51h-5.335v-3.928a1.666,1.666,0,0,1,1.667-1.666h3.751a.471.471,0,0,0,.471-.471v-5.536a.47.47,0,0,0-.471-.47H1125.6a6.734,6.734,0,0,0-6.735,6.734v5.337h-3.356a.471.471,0,0,0-.471.471v5.535a.471.471,0,0,0,.471.471h3.356Z" fill="#fff" fill-rule="evenodd"/><circle cx="29.516" cy="29.516" r="29.516" transform="translate(1150.979 1379.406) rotate(-22.5)" fill="#db6d16"/><path d="M1199.9,1382.807a2.293,2.293,0,1,0,2.293,2.293A2.293,2.293,0,0,0,1199.9,1382.807Z" fill="#fff"/><path d="M1189.7,1385.747a9.632,9.632,0,1,0,9.632,9.632A9.643,9.643,0,0,0,1189.7,1385.747Zm0,15.8a6.17,6.17,0,1,1,6.17-6.17A6.176,6.176,0,0,1,1189.7,1401.549Z" fill="#fff"/><path d="M1197.351,1414.935h-15.616a11.761,11.761,0,0,1-11.748-11.748v-15.616a11.761,11.761,0,0,1,11.748-11.748h15.616a11.761,11.761,0,0,1,11.748,11.748v15.616A11.761,11.761,0,0,1,1197.351,1414.935Zm-15.616-35.432a8.077,8.077,0,0,0-8.068,8.068v15.616a8.077,8.077,0,0,0,8.068,8.069h15.616a8.078,8.078,0,0,0,8.069-8.069v-15.616a8.078,8.078,0,0,0-8.069-8.068Z" fill="#fff"/></g></svg>