<svg xmlns="http://www.w3.org/2000/svg" width="61.647" height="61.647" viewBox="0 0 61.647 61.647"><g transform="translate(-1123.275 -1548.178)"><path d="M1184.922,1579a30.823,30.823,0,1,1-30.824-30.824A30.822,30.822,0,0,1,1184.922,1579Zm0,0" fill="#2a65a9"/><path d="M1123.275,1579c0,.316.016.623.026.934h30.8v-31.758A30.825,30.825,0,0,0,1123.275,1579Zm0,0" fill="#db6d16"/><path d="M1154.1,1553.492a1.066,1.066,0,0,0-1.064,1.065V1579H1137.09a1.064,1.064,0,0,0,0,2.128H1154.1a1.066,1.066,0,0,0,1.065-1.064v-25.509a1.065,1.065,0,0,0-1.065-1.065Zm0,0" fill="#fff"/></g></svg>